<?xml version="1.0" encoding="UTF-8" standalone="no"?>
<svg xmlns:dc="http://purl.org/dc/elements/1.1/" xmlns:cc="http://creativecommons.org/ns#" xmlns:rdf="http://www.w3.org/1999/02/22-rdf-syntax-ns#" xmlns:svg="http://www.w3.org/2000/svg" xmlns="http://www.w3.org/2000/svg" xmlns:xlink="http://www.w3.org/1999/xlink" xmlns:sodipodi="http://sodipodi.sourceforge.net/DTD/sodipodi-0.dtd" xmlns:inkscape="http://www.inkscape.org/namespaces/inkscape" version="1.1" id="svg4220" viewBox="0 0 44.999998 44.999998" height="48" width="48" inkscape:version="0.91 r13725" sodipodi:docname="typebreaker.svg" inkscape:export-filename="/home/hannenz/typebreaker/data/typebreaker-pause.png" inkscape:export-xdpi="90" inkscape:export-ydpi="90">
    <sodipodi:namedview pagecolor="#ffffff" bordercolor="#666666" borderopacity="1" objecttolerance="10" gridtolerance="10" guidetolerance="10" inkscape:pageopacity="0" inkscape:pageshadow="2" inkscape:window-width="1918" inkscape:window-height="1047" id="namedview42" showgrid="false" inkscape:zoom="8" inkscape:cx="43.471" inkscape:cy="50.908" inkscape:window-x="1920" inkscape:window-y="0" inkscape:window-maximized="1" inkscape:current-layer="layer3" inkscape:object-paths="true" inkscape:snap-intersection-paths="true" inkscape:object-nodes="true" inkscape:snap-smooth-nodes="true" inkscape:snap-object-midpoints="true" inkscape:snap-center="true" inkscape:snap-bbox="true" inkscape:snap-global="false" />
    <defs id="defs4222">
        <linearGradient gradientTransform="translate(49.620739,10.999812)" gradientUnits="userSpaceOnUse" y2="42" x2="-19" y1="20" x1="-19" id="linearGradient5177" xlink:href="#linearGradient5171" />
        <linearGradient id="linearGradient5171">
            <stop id="stop5173" offset="0" style="stop-color:#f8f8f8" />
            <stop id="stop5175" offset="1" style="stop-color:#efeff0" />
        </linearGradient>
        <linearGradient y2="42.437775" x2="40.290417" y1="5.524776" x1="40.290417" gradientTransform="matrix(1.4864864,0,0,0.75675676,-3.6756786,23.337847)" gradientUnits="userSpaceOnUse" id="linearGradient4088" xlink:href="#linearGradient3462" />
        <linearGradient id="linearGradient3462">
            <stop offset="0" style="stop-color:#ffffff" id="stop3464" />
            <stop offset="0.03457849" style="stop-color:#ffffff;stop-opacity:0.23529" id="stop3466" />
            <stop offset="0.96375686" style="stop-color:#ffffff;stop-opacity:0.15686" id="stop3468" />
            <stop offset="1" style="stop-color:#ffffff;stop-opacity:0.39216" id="stop3470" />
        </linearGradient>
        <linearGradient gradientTransform="matrix(1.2666667,0,0,0.83333334,1.6,19.41669)" gradientUnits="userSpaceOnUse" y2="61.171558" x2="24.725653" y1="7.8793106" x1="24.725653" id="linearGradient4534" xlink:href="#radialGradient4536" />
        <radialGradient gradientTransform="matrix(0,1.2316483,-1.625754,0,18.486966,-28.721977)" gradientUnits="userSpaceOnUse" id="radialGradient4536" r="20.396999" cy="3.99" cx="23.896">
            <stop offset="0" style="stop-color:#ffffff" id="stop4538" />
            <stop offset="0.06562372" style="stop-color:#dddddd" id="stop4540" />
            <stop offset="0.66093999" style="stop-color:#abacae" id="stop4542" />
            <stop offset="1" style="stop-color:#89898b" id="stop4544" />
        </radialGradient>
        <linearGradient x1="302.85715" y1="366.64789" x2="302.85715" y2="609.50507" id="linearGradient19619" xlink:href="#linearGradient5048" gradientUnits="userSpaceOnUse" gradientTransform="matrix(0.08449704,0,0,0.01235294,-6.5396456,38.470822)" />
        <linearGradient id="linearGradient5048">
            <stop id="stop5050" style="stop-color:#000000;stop-opacity:0" offset="0" />
            <stop id="stop5056" style="stop-color:#000000" offset="0.5" />
            <stop id="stop5052" style="stop-color:#000000;stop-opacity:0" offset="1" />
        </linearGradient>
        <radialGradient cx="605.71429" cy="486.64789" r="117.14286" fx="605.71429" fy="486.64789" id="radialGradient19616" xlink:href="#linearGradient5060" gradientUnits="userSpaceOnUse" gradientTransform="matrix(-0.0289166,0,0,0.01235294,21.026894,38.470848)" />
        <linearGradient id="linearGradient5060">
            <stop id="stop5062" style="stop-color:#000000" offset="0" />
            <stop id="stop5064" style="stop-color:#000000;stop-opacity:0" offset="1" />
        </linearGradient>
        <radialGradient cx="605.71429" cy="486.64789" r="117.14286" fx="605.71429" fy="486.64789" id="radialGradient19613" xlink:href="#linearGradient5060" gradientUnits="userSpaceOnUse" gradientTransform="matrix(0.02891661,0,0,0.01235294,26.973101,38.470848)" />
        <linearGradient gradientTransform="translate(54.620552,10.999812)" gradientUnits="userSpaceOnUse" y2="42" x2="-19" y1="20" x1="-19" id="linearGradient5177-3" xlink:href="#linearGradient5171" />
        <linearGradient id="linearGradient4806">
            <stop offset="0" style="stop-color:#ffffff" id="stop4808" />
            <stop offset="0.42447853" style="stop-color:#ffffff;stop-opacity:0.23529" id="stop4810" />
            <stop offset="0.82089913" style="stop-color:#ffffff;stop-opacity:0.15686" id="stop4812" />
            <stop offset="1" style="stop-color:#ffffff;stop-opacity:0.39216" id="stop4814" />
        </linearGradient>
        <linearGradient id="linearGradient3957-2">
            <stop id="stop3959-62" style="stop-color:#ffffff" offset="0" />
            <stop id="stop3961-5" style="stop-color:#c1c1c1" offset="1" />
        </linearGradient>
        <linearGradient id="linearGradient2867-449-88-871-390-598-476-591-434-148-57-177-3-8">
            <stop id="stop3750-8-9" style="stop-color:#90dbec" offset="0" />
            <stop id="stop3752-3-2" style="stop-color:#42baea" offset="0.26238" />
            <stop id="stop3754-7-2" style="stop-color:#3689e6" offset="0.704952" />
            <stop id="stop3756-9-3" style="stop-color:#2b63a0" offset="1" />
        </linearGradient>
        <linearGradient id="linearGradient4168">
            <stop id="stop4170" style="stop-color:#f8b17e" offset="0" />
            <stop id="stop4172" style="stop-color:#e35d4f" offset="0.23208089" />
            <stop id="stop4174" style="stop-color:#c6262e" offset="0.5908742" />
            <stop id="stop4176" style="stop-color:#690b54" offset="1" />
        </linearGradient>
        <linearGradient y2="40.495617" x2="71.204407" y1="15.369057" x1="71.204407" gradientTransform="matrix(2.3268746,0,0,2.3268746,-135.94475,-32.842783)" gradientUnits="userSpaceOnUse" id="linearGradient3293" xlink:href="#linearGradient4806" />
        <radialGradient r="62.769119" fy="185.29727" fx="99.189415" cy="185.29727" cx="99.189415" gradientTransform="matrix(0.3823536,7.5555777e-8,-1.8372241e-8,0.1115198,-5.9254271,36.335849)" gradientUnits="userSpaceOnUse" id="radialGradient3300" xlink:href="#linearGradient5060" />
        <linearGradient y2="26" x2="24" y1="22" x1="24" gradientTransform="translate(8.0000046,8.0000026)" gradientUnits="userSpaceOnUse" id="linearGradient4131" xlink:href="#linearGradient3957-2" />
        <linearGradient y2="27.343702" x2="22.805599" y1="25.433903" x1="21.013996" gradientTransform="matrix(1.4390244,0,0,1.4390244,-2.536585,-2.5365857)" gradientUnits="userSpaceOnUse" id="linearGradient4137" xlink:href="#linearGradient3957-2" />
        <linearGradient y2="22.986004" x2="33.447899" y1="15.149301" x1="27.92535" gradientTransform="matrix(1.4390244,0,0,1.4390244,-2.536585,-2.5365857)" gradientUnits="userSpaceOnUse" id="linearGradient4140" xlink:href="#linearGradient4168" />
        <radialGradient r="19.99999" fy="8.4498091" fx="5.2015562" cy="8.4498091" cx="5.2015562" gradientTransform="matrix(-8.4508511e-6,3.8890437,-3.8040162,-8.371941e-6,64.143254,-21.229008)" gradientUnits="userSpaceOnUse" id="radialGradient4145" xlink:href="#linearGradient4168" />
        <linearGradient y2="56.571861" x2="90.944229" y1="16.591679" x1="90.944229" gradientTransform="matrix(0.78170612,0,0,0.77580763,-38.19925,6.9191079)" gradientUnits="userSpaceOnUse" id="linearGradient3124-5" xlink:href="#linearGradient5803-2-7-6" />
        <linearGradient id="linearGradient5803-2-7-6">
            <stop id="stop5805-3-6-9" style="stop-color:#fffdf3" offset="0" />
            <stop id="stop5807-0-0-0" style="stop-color:#fbebeb" offset="1" />
        </linearGradient>
        <linearGradient x1="71.204407" y1="6.2375584" x2="71.204407" y2="44.340794" id="linearGradient3288" xlink:href="#linearGradient4011" gradientUnits="userSpaceOnUse" gradientTransform="matrix(1.3243242,0,0,1.3243242,27.001563,-16.082103)" />
        <linearGradient id="linearGradient4011">
            <stop id="stop4013" style="stop-color:#ffffff" offset="0" />
            <stop id="stop4015" style="stop-color:#ffffff;stop-opacity:0.23529" offset="0.507761" />
            <stop id="stop4017" style="stop-color:#ffffff;stop-opacity:0.15686" offset="0.83456558" />
            <stop id="stop4019" style="stop-color:#ffffff;stop-opacity:0.39216" offset="1" />
        </linearGradient>
        <radialGradient r="20.397499" fy="4.0384412" fx="21.994528" cy="4.0384412" cx="21.994528" gradientTransform="matrix(0,3.621583,-4.7804251,0,141.07391,-95.57386)" gradientUnits="userSpaceOnUse" id="radialGradient3022" xlink:href="#linearGradient3242" />
        <linearGradient id="linearGradient3242">
            <stop id="stop3244" style="stop-color:#f8b17e" offset="0" />
            <stop id="stop3246" style="stop-color:#e35d4f" offset="0.26238" />
            <stop id="stop3248" style="stop-color:#c6262e" offset="0.66093999" />
            <stop id="stop3250" style="stop-color:#690b54" offset="1" />
        </linearGradient>
        <radialGradient r="62.769119" fy="185.29727" fx="99.189415" cy="185.29727" cx="99.189415" gradientTransform="matrix(0.3823536,7.5555777e-8,-1.8372241e-8,0.1115198,-5.9254271,36.335849)" gradientUnits="userSpaceOnUse" id="radialGradient3300-1" xlink:href="#linearGradient5060" />
        <linearGradient gradientUnits="userSpaceOnUse" xlink:href="#linearGradient5060" id="linearGradient3951" y2="37.3153" x2="40" y1="31.082113" x1="40" gradientTransform="translate(0.759145,-2.1482323)" />
        <radialGradient cx="6.702713" cy="73.615715" r="7.228416" fx="6.702713" fy="73.615715" id="radialGradient2456" xlink:href="#linearGradient5060" gradientUnits="userSpaceOnUse" gradientTransform="matrix(2.5824009,0,0,0.5533716,14.690909,17.92982)" />
        <linearGradient x1="361.10583" y1="87.050117" x2="361.10583" y2="94.396416" id="linearGradient2451" xlink:href="#linearGradient3912" gradientUnits="userSpaceOnUse" gradientTransform="matrix(1.3111548,0,0,1.3337028,-437.61398,-66.532889)" />
        <linearGradient id="linearGradient3912">
            <stop id="stop3914" style="stop-color:#787878" offset="0" />
            <stop id="stop3916" style="stop-color:#bebebe" offset="0.35046947" />
            <stop id="stop3918" style="stop-color:#c8c8c8" offset="0.49417919" />
            <stop id="stop3920" style="stop-color:#e6e6e6" offset="0.58907253" />
            <stop id="stop3922" style="stop-color:#8c8c8c" offset="1" />
        </linearGradient>
        <linearGradient xlink:href="#outerBackgroundGradient-5-0" id="linearGradient3148" gradientUnits="userSpaceOnUse" gradientTransform="matrix(1.4000003,0,0,1.5652174,2.5999953,21.02178)" x1="15" y1="24.618645" x2="15" y2="2" />
        <linearGradient id="outerBackgroundGradient-5-0">
            <stop id="stop3864-8-6-4" offset="0" style="stop-color:#261e2b" />
            <stop id="stop3866-9-1-86" offset="1" style="stop-color:#352f39" />
        </linearGradient>
        <linearGradient xlink:href="#linearGradient4084" id="linearGradient3144" gradientUnits="userSpaceOnUse" gradientTransform="matrix(1.6486489,0,0,1.135135,-7.5675799,-0.74323082)" x1="23.99999" y1="5.7531762" x2="23.99999" y2="42.121033" />
        <linearGradient id="linearGradient4084">
            <stop offset="0" style="stop-color:#ffffff" id="stop4086" />
            <stop offset="0.01596775" style="stop-color:#ffffff;stop-opacity:0.23529" id="stop4088" />
            <stop offset="0.99257565" style="stop-color:#ffffff;stop-opacity:0.15686" id="stop4090" />
            <stop offset="1" style="stop-color:#ffffff;stop-opacity:0.39216" id="stop4092" />
        </linearGradient>
        <linearGradient xlink:href="#linearGradient3880" id="linearGradient3141" gradientUnits="userSpaceOnUse" gradientTransform="matrix(1.5500003,0,0,1.5555554,-0.55000582,17.444445)" x1="10" y1="-3" x2="20" y2="12" />
        <linearGradient id="linearGradient3880">
            <stop id="stop3883" offset="0" style="stop-color:#ffffff" />
            <stop id="stop3885" offset="1" style="stop-color:#ffffff;stop-opacity:0" />
        </linearGradient>
        <linearGradient xlink:href="#linearGradient4054-5" id="linearGradient3152-7" gradientUnits="userSpaceOnUse" gradientTransform="matrix(1.2162163,0,0,0.83783786,2.6663586,14.977385)" x1="25.004524" y1="51.07592" x2="25.004524" y2="40.265266" />
        <linearGradient id="linearGradient4054-5">
            <stop offset="0" style="stop-color:#ffffff" id="stop4056-0" />
            <stop offset="0.06316455" style="stop-color:#ffffff;stop-opacity:0.23529" id="stop4058-4" />
            <stop offset="0.96892834" style="stop-color:#ffffff;stop-opacity:0.15686" id="stop4060-4" />
            <stop offset="1" style="stop-color:#ffffff;stop-opacity:0.39216" id="stop4062-0" />
        </linearGradient>
        <radialGradient inkscape:collect="always" xlink:href="#linearGradient5060" id="radialGradient4444" gradientUnits="userSpaceOnUse" gradientTransform="matrix(0.38235,7.5556e-8,-1.8372e-8,0.11152,-5.9254,36.336)" cx="99.189415" cy="185.29727" fx="99.189415" fy="185.29727" r="62.769119" />
        <radialGradient inkscape:collect="always" xlink:href="#linearGradient5060" id="radialGradient4446" gradientUnits="userSpaceOnUse" gradientTransform="matrix(0.2549,5.3967e-8,-1.2248e-8,0.07966,6.7164,44.241)" cx="99.189415" cy="185.29727" fx="99.189415" fy="185.29727" r="62.769119" />
        <radialGradient inkscape:collect="always" xlink:href="#linearGradient4168" id="radialGradient4448" gradientUnits="userSpaceOnUse" gradientTransform="matrix(-1.5845e-6,0.72919,-0.71325,-1.5697e-6,28.389,8.1856)" cx="5.2015562" cy="8.4498091" fx="5.2015562" fy="8.4498091" r="19.99999" />
        <linearGradient id="linearGradient4223">
            <stop id="stop4225" style="stop-color:#ffffff" offset="0" />
            <stop id="stop4227" style="stop-color:#ffffff;stop-opacity:0.23529" offset="0.00000002" />
            <stop id="stop4229" style="stop-color:#ffffff;stop-opacity:0.15686" offset="1" />
            <stop id="stop4231" style="stop-color:#ffffff;stop-opacity:0.39216" offset="1" />
        </linearGradient>
        <linearGradient id="linearGradient4382">
            <stop id="stop4384" style="stop-color:#64baff" offset="0" />
            <stop id="stop4386" style="stop-color:#3689e6" offset="1" />
        </linearGradient>
        <linearGradient y2="40.580242" x2="20.094137" y1="17.822493" x1="20.094137" gradientTransform="matrix(1.8495732,0,0,1.6697609,-24.901408,-24.759302)" gradientUnits="userSpaceOnUse" id="linearGradient4217" xlink:href="#linearGradient4223" />
        <linearGradient y2="3240.323" x2="2035.1652" y1="3207.1924" x1="2035.1652" gradientTransform="matrix(1.6098762,0,0,1.2335574,-3256.7456,-3952.6552)" gradientUnits="userSpaceOnUse" id="linearGradient4219" xlink:href="#linearGradient4382" />
        <linearGradient id="linearGradient4275">
            <stop offset="0" style="stop-color:#ffffff" id="stop4277" />
            <stop offset="0.00205602" style="stop-color:#ffffff;stop-opacity:0.23529" id="stop4279" />
            <stop offset="0.39239356" style="stop-color:#ffffff;stop-opacity:0.15686" id="stop4281" />
            <stop offset="1" style="stop-color:#ffffff;stop-opacity:0.39216" id="stop4283" />
        </linearGradient>
        <linearGradient x1="25.029985" y1="21.051323" x2="17.064001" y2="35.86034" id="linearGradient3038" xlink:href="#linearGradient4275" gradientUnits="userSpaceOnUse" gradientTransform="matrix(1.0542,0,0,1.0518,-11.051,-12.017)" />
        <radialGradient cx="65.079536" cy="48.189987" r="31.000002" fx="65.079536" fy="48.189987" id="radialGradient3900-3" xlink:href="#linearGradient3242-7-3-8-0-4-58-06" gradientUnits="userSpaceOnUse" gradientTransform="matrix(0,1.4821,-1.6084,0,93,-96.71)" />
        <linearGradient id="linearGradient3242-7-3-8-0-4-58-06">
            <stop offset="0" style="stop-color:#cdf87e" id="stop3244-5-8-5-6-4-3-8" />
            <stop offset="0.26238" style="stop-color:#a2e34f" id="stop3246-9-5-1-5-3-0-7" />
            <stop offset="0.66093999" style="stop-color:#68b723" id="stop3248-7-2-0-7-5-35-9" />
            <stop offset="1" style="stop-color:#1d7e0d" id="stop3250-8-2-8-5-6-40-4" />
        </linearGradient>
        <linearGradient id="linearGradient3856-1-6-5">
            <stop offset="0" style="stop-color:#634215" id="stop3858-0-6-4" />
            <stop offset="1" style="stop-color:#93700d" id="stop3860-2-8-2" />
        </linearGradient>
        <linearGradient id="linearGradient3117">
            <stop offset="0" style="stop-color:#ffffff" id="stop3119" />
            <stop offset="0.56911701" style="stop-color:#ffffff;stop-opacity:0.23529" id="stop3121" />
            <stop offset="0.93297637" style="stop-color:#ffffff;stop-opacity:0.15686" id="stop3123" />
            <stop offset="1" style="stop-color:#ffffff;stop-opacity:0.39216" id="stop3125" />
        </linearGradient>
        <linearGradient id="linearGradient3846">
            <stop offset="0" style="stop-color:#fff3cb" id="stop3848" />
            <stop offset="0.26238" style="stop-color:#fdde76" id="stop3850" />
            <stop offset="0.66093999" style="stop-color:#f9c440" id="stop3852" />
            <stop offset="1" style="stop-color:#e48b20" id="stop3854" />
        </linearGradient>
        <linearGradient gradientTransform="matrix(0.66654,0,-0.0029,0.67787,-3.3568,-10.218)" gradientUnits="userSpaceOnUse" xlink:href="#linearGradient3117" id="linearGradient3039" y2="57.567127" x2="29.291178" y1="19.787613" x1="29.126724" />
        <linearGradient gradientTransform="matrix(0.64447,0,0,0.62794,0.53269,1.526)" gradientUnits="userSpaceOnUse" xlink:href="#linearGradient3846" id="linearGradient3042" y2="54.669891" x2="24" y1="-14.603537" x1="24" />
        <linearGradient gradientTransform="matrix(0.0845,0,0,0.01235,-6.5396,38.471)" gradientUnits="userSpaceOnUse" xlink:href="#linearGradient5048" id="linearGradient3196" y2="609.50507" x2="302.85715" y1="366.64789" x1="302.85715" />
        <radialGradient gradientTransform="matrix(-0.02892,0,0,0.01235,21.027,38.471)" gradientUnits="userSpaceOnUse" xlink:href="#linearGradient5060" id="radialGradient3198" fy="486.64789" fx="605.71429" r="117.14286" cy="486.64789" cx="605.71429" />
        <radialGradient gradientTransform="matrix(0.02892,0,0,0.01235,26.973,38.471)" gradientUnits="userSpaceOnUse" xlink:href="#linearGradient5060" id="radialGradient3200" fy="486.64789" fx="605.71429" r="117.14286" cy="486.64789" cx="605.71429" />
        <linearGradient gradientUnits="userSpaceOnUse" y2="5.4861937" x2="16" y1="28" x1="16" id="linearGradient4236" xlink:href="#linearGradient3856-1-6-5" />
        <linearGradient id="linearGradient4119">
            <stop offset="0" style="stop-color:#ffffff" id="stop4121" />
            <stop offset="0.53996283" style="stop-color:#afaba5" id="stop4148" />
            <stop offset="0.61988848" style="stop-color:#837874" id="stop4146" />
            <stop offset="1" style="stop-color:#b4b2aa" id="stop4123" />
        </linearGradient>
        <linearGradient gradientTransform="matrix(1.5921,0,0,1.5921,-90.911,-36.366)" gradientUnits="userSpaceOnUse" xlink:href="#linearGradient4806" id="linearGradient3221" y2="40.495617" x2="71.204407" y1="15.369057" x1="71.204407" />
        <radialGradient gradientTransform="matrix(-6.7138e-8,1.1033,-1.0395,-7.5994e-8,32.783,-12.24)" gradientUnits="userSpaceOnUse" xlink:href="#linearGradient2867-449-88-871-390-598-476-591-434-148-57-177-641-289-620-227-114-444-680-744-4-8-69-5-4-8-426-2-9-1-4-965" id="radialGradient3228" fy="8.625761" fx="0.3035326" r="19.99999" cy="8.6257601" cx="15.026252" />
        <linearGradient id="linearGradient2867-449-88-871-390-598-476-591-434-148-57-177-641-289-620-227-114-444-680-744-4-8-69-5-4-8-426-2-9-1-4-965">
            <stop offset="0" style="stop-color:#f4f4f4" id="stop4036" />
            <stop offset="1" style="stop-color:#dadada" id="stop4040" />
        </linearGradient>
        <linearGradient id="linearGradient3820-7-2-2">
            <stop offset="0" style="stop-color:#3d3d3d" id="stop3822-2-6-36" />
            <stop offset="0.5" style="stop-color:#686868;stop-opacity:0.49804" id="stop3864-8-7-6" />
            <stop offset="1" style="stop-color:#686868;stop-opacity:0" id="stop3824-1-2-4" />
        </linearGradient>
        <radialGradient gradientTransform="matrix(0.23897,0,0,0.07604,0.30435,12.071)" gradientUnits="userSpaceOnUse" xlink:href="#linearGradient3820-7-2-2" id="radialGradient4277" fy="186.17059" fx="99.157013" r="62.769119" cy="186.17059" cx="99.157013" />
        <radialGradient gradientTransform="matrix(-4.7487238e-8,0.78037803,-0.73522917,-5.3751304e-8,22.212601,1.684189)" gradientUnits="userSpaceOnUse" xlink:href="#linearGradient2867-449-88-871-390-598-476-591-434-148-57-177-641-289-620-227-114-444-680-744-4-8-69-5-4-8-426-2-9-1-4-965-2" id="radialGradient3228-8" fy="8.625761" fx="0.3035326" r="19.99999" cy="8.6257601" cx="15.026252" />
        <linearGradient id="linearGradient2867-449-88-871-390-598-476-591-434-148-57-177-641-289-620-227-114-444-680-744-4-8-69-5-4-8-426-2-9-1-4-965-2">
            <stop offset="0" style="stop-color:#f4f4f4" id="stop4036-1" />
            <stop offset="1" style="stop-color:#d0d0d0" id="stop4040-2" />
        </linearGradient>
        <radialGradient gradientTransform="matrix(-4.7487238e-8,0.78037803,-0.73522917,-5.3751304e-8,20.712408,0.1839955)" gradientUnits="userSpaceOnUse" xlink:href="#linearGradient2867-449-88-871-390-598-476-591-434-148-57-177-641-289-620-227-114-444-680-744-4-8-69-5-4-8-426-2-9-1-4-965-2" id="radialGradient4949" fy="8.625761" fx="0.3035326" r="19.99999" cy="8.6257601" cx="15.026252" />
        <radialGradient gradientTransform="matrix(0,1.9131623,-1.9131652,0,45.41917,-15.233372)" gradientUnits="userSpaceOnUse" xlink:href="#linearGradient4119" id="radialGradient4125-6" fy="15.377224" fx="16" r="0.62612247" cy="15.377224" cx="16" />
        <linearGradient gradientTransform="matrix(1.1022033,0,0,1.1022038,-7.5861158,-10.16348)" gradientUnits="userSpaceOnUse" xlink:href="#linearGradient4806" id="linearGradient3221-8" y2="40.495617" x2="71.204407" y1="15.369057" x1="71.204407" />
        <radialGradient gradientTransform="matrix(-4.7487238e-8,0.78037803,-0.73522917,-5.3751304e-8,78.179235,6.2357099)" gradientUnits="userSpaceOnUse" xlink:href="#linearGradient2867-449-88-871-390-598-476-591-434-148-57-177-641-289-620-227-114-444-680-744-4-8-69-5-4-8-426-2-9-1-4-965" id="radialGradient3228-1" fy="8.625761" fx="0.3035326" r="19.99999" cy="8.6257601" cx="15.026252" />
        <radialGradient gradientTransform="matrix(0.17524541,0,0,0.05575992,-1.37681,18.119145)" gradientUnits="userSpaceOnUse" xlink:href="#linearGradient3820-7-2-2" id="radialGradient4277-5" fy="186.17059" fx="99.157013" r="62.769119" cy="186.17059" cx="99.157013" />
        <radialGradient gradientTransform="matrix(0.17524541,0,0,0.05575992,54.589824,22.670666)" gradientUnits="userSpaceOnUse" xlink:href="#linearGradient3820-7-2-2" id="radialGradient3070" fy="186.17059" fx="99.157013" r="62.769119" cy="186.17059" cx="99.157013" />
        <radialGradient gradientTransform="matrix(0,1.9132,-1.9132,0,45.419,-15.233)" gradientUnits="userSpaceOnUse" xlink:href="#linearGradient4119" id="radialGradient3139" fy="15.377224" fx="16" r="0.62612247" cy="15.377224" cx="16" />
    </defs>
    <metadata id="metadata4225">
        <rdf:RDF>
            <cc:Work rdf:about="">
                <dc:format>image/svg+xml</dc:format>
                <dc:type rdf:resource="http://purl.org/dc/dcmitype/StillImage" />
                <dc:title></dc:title>
            </cc:Work>
        </rdf:RDF>
    </metadata>
    <g inkscape:groupmode="layer" id="layer5" inkscape:label="screen">
        <g transform="matrix(0.62765,0,0,0.62765,2.4153,1.5784)" id="g4177">
            <path inkscape:connector-curvature="0" style="opacity:0.3;fill:url(#radialGradient2456);stroke-width:0.8" id="path2589" d="m 50.667,58.667 c 0,2.209 -8.358,4 -18.667,4 -10.309,0 -18.667,-1.791 -18.667,-4 0,-2.209 8.358,-4 18.667,-4 10.309,0 18.667,1.791 18.667,4 l 0,0 z" />
            <path inkscape:connector-curvature="0" style="fill:url(#linearGradient2451);stroke-width:0.99827;stroke-linecap:round;stroke-linejoin:round;stroke-dashoffset:0.5" id="rect1789" d="m 23.92,48.499 c 0,0 0.186,5.678 -0.744,7.001 -0.931,1.324 -2.782,1.339 -2.782,1.339 -1.188,0.139 -1.198,2.662 0,2.662 l 23.212,0 c 1.198,0 1.188,-2.525 0,-2.662 0,0 -1.851,-0.02 -2.782,-1.339 -0.93,-1.323 -0.744,-7.001 -0.744,-7.001 l -16.16,0 0,0 z" />
            <rect style="fill:#1a1a1a;stroke:#000000;stroke-width:1.00024;stroke-linecap:round;stroke-linejoin:round;stroke-dashoffset:0.5" id="rect2722" y="4.5002" x="0.50012" ry="1.3333" rx="1.4" height="44" width="63" />
            <path inkscape:connector-curvature="0" id="rect2722-0" d="m 4,8.5 56,0 0,36 -56,0 z" style="fill:url(#linearGradient3148)" />
            <path inkscape:connector-curvature="0" id="path3942" d="m 4,8.5 0,36 56,0 0,-36 -56,0 z m 1,1 54,0 0,34 -54,0 0,-34 z" style="opacity:0.2;fill:#000000" />
            <rect style="opacity:0.2;fill:none;stroke:url(#linearGradient3144);stroke-linecap:round;stroke-linejoin:round" id="rect6741" y="5.5" x="1.5" ry="0" rx="0" height="42" width="61" />
            <path inkscape:connector-curvature="0" id="rect3872" d="M 1,5 1,33 63,12.583 63,5 Z" style="opacity:0.2;fill:url(#linearGradient3141)" />
            <path inkscape:connector-curvature="0" style="color:#000000;opacity:0.4;fill:none;stroke:#000000;stroke-width:0.99827;stroke-linecap:round;stroke-linejoin:round;stroke-dashoffset:0.5" id="rect1789-9" d="m 23.92,48.499 c 0,0 0.186,5.678 -0.744,7.001 -0.931,1.324 -2.782,1.339 -2.782,1.339 -1.188,0.139 -1.198,2.662 0,2.662 l 23.212,0 c 1.198,0 1.188,-2.525 0,-2.662 0,0 -1.851,-0.02 -2.782,-1.339 -0.93,-1.323 -0.744,-7.001 -0.744,-7.001 l -16.16,0 0,0 z" />
            <path inkscape:connector-curvature="0" d="m 24.906,49.5 c 0.01,0.552 0.04,0.95 0,2.031 -0.03,0.816 -0.1,1.69 -0.219,2.469 -0.12,0.779 -0.251,1.443 -0.687,2.063 -1.194,1.697 -3.116,1.748 -3.406,1.75 -0.04,0.06 -0.09,0.236 -0.09,0.406 0,0.137 0.04,0.224 0.06,0.281 l 22.876,0 c 0.02,-0.06 0.06,-0.144 0.06,-0.281 0,-0.17 -0.06,-0.346 -0.09,-0.406 -0.29,0 -2.212,-0.05 -3.406,-1.75 -0.436,-0.62 -0.567,-1.284 -0.687,-2.063 -0.121,-0.779 -0.187,-1.653 -0.219,-2.469 -0.04,-1.081 -0.01,-1.479 0,-2.031 l -14.188,0 z m 18.5,8.313 c -0.03,-0.06 0.01,0.02 0.06,0.03 l 0,-0.03 c 0,0 -0.05,0 -0.06,0 z m -22.812,0 c 0,0 -0.06,0 -0.06,0 0,0 0,0.03 0,0.03 0.05,0 0.1,-0.09 0.06,-0.03 z" id="path4043" style="color:#000000;opacity:0.6;fill:none;stroke:url(#linearGradient3152-7);stroke-linecap:round;stroke-linejoin:round" />
        </g>
    </g>
    <g inkscape:groupmode="layer" id="layer1" inkscape:label="pause">
        <g id="g8479" transform="matrix(1.3334,0,0,1.3334,-7.3174,-6.2617)">
            <g id="g8472">
                <g id="g4426" transform="matrix(0.1875,0,0,0.1875,16.362,12.166)">
                    <path style="opacity:0.2;fill:url(#radialGradient4444)" id="path4428" d="m 56,57.002 a 24,6.9986 0 1 1 -48,0 24,6.9986 0 1 1 48,0 z" inkscape:connector-curvature="0" />
                    <path inkscape:connector-curvature="0" d="m 48,59.002 a 16,4.9989 0 1 1 -32,0 16,4.9989 0 1 1 32,0 z" id="path4430" style="opacity:0.4;fill:url(#radialGradient4446)" />
                </g>
                <path style="color:#000000;fill:url(#radialGradient4448)" id="path4432" d="m 22.362,12.635 c -3.052,0 -5.531,2.479 -5.531,5.531 0,3.052 2.479,5.531 5.531,5.531 3.052,0 5.531,-2.479 5.531,-5.531 0,-3.052 -2.479,-5.531 -5.531,-5.531 z" inkscape:connector-curvature="0" />
                <path d="m 22.362,12.635 c -3.052,0 -5.531,2.479 -5.531,5.531 0,3.052 2.479,5.531 5.531,5.531 3.052,0 5.531,-2.479 5.531,-5.531 0,-3.052 -2.479,-5.531 -5.531,-5.531 z" id="path4434" style="color:#000000;opacity:0.5;fill:#000000;fill-opacity:0;stroke:#6f0000;stroke-width:0.1875;stroke-linecap:round;stroke-linejoin:round" inkscape:connector-curvature="0" />
            </g>
            <path inkscape:connector-curvature="0" style="color:#000000;fill:#ffffff;fill-rule:evenodd" id="path4442" d="m 19.924,15.916 0,4.5 1.935,0 0,-4.5 z" sodipodi:nodetypes="ccccc" />
            <path sodipodi:nodetypes="ccccc" d="m 22.865,15.916 0,4.5 1.934,0 0,-4.5 z" id="path4509" style="color:#000000;fill:#ffffff;fill-rule:evenodd" inkscape:connector-curvature="0" />
        </g>
    </g>
    <g inkscape:groupmode="layer" id="layer4" inkscape:label="time" style="display:none">
        <g id="layer1-3" transform="matrix(0.35714,0,0,0.35714,13.929,14.997)">
            <path style="fill:url(#radialGradient4277)" id="path3818-0-2" d="m 39,26.227 a 15,4.7727 0 1 1 -30,0 15,4.7727 0 1 1 30,0 z" inkscape:connector-curvature="0" />
            <path style="color:#000000;fill:url(#radialGradient3228)" id="path2555-7-65" d="M 24,-12.5 C 12.689,-12.5 3.5,-3.3112 3.5,8 3.5,19.311 12.689,28.5 24,28.5 35.311,28.5 44.5,19.311 44.5,8 44.5,-3.3112 35.311,-12.5 24,-12.5 Z" inkscape:connector-curvature="0" />
            <path style="color:#000000;opacity:0.4;fill:none;stroke:#000000;stroke-linecap:round;stroke-linejoin:round" id="path2555-7-1-7" d="M 24,-12.5 C 12.689,-12.5 3.5,-3.3112 3.5,8 3.5,19.311 12.689,28.5 24,28.5 35.311,28.5 44.5,19.311 44.5,8 44.5,-3.3112 35.311,-12.5 24,-12.5 Z" inkscape:connector-curvature="0" />
            <path style="fill:none;stroke:#333333;stroke-width:0.6;stroke-linecap:round" id="path2312" d="M 22.8,9.3215 34.2,-3.7" inkscape:connector-curvature="0" />
            <path style="fill:#0000ff;stroke:#333333;stroke-width:0.6;stroke-linecap:round" id="path2314" d="M 25.287,8.1758 15.3,7.5275" inkscape:connector-curvature="0" />
            <path style="fill:none;stroke:#eb5c3a;stroke-width:0.6;stroke-linecap:round" id="path2316" d="M 22.8,5.0754 28.206,19.7" inkscape:connector-curvature="0" />
            <path style="-inkscape-font-specification:Raleway;opacity:0.4;fill:#000000" id="text4045" d="m 25.529,-9.9126 c -0.175,0 -0.339,0.039 -0.48,0.087 -0.138,0.045 -0.246,0.071 -0.35,0.131 -0.101,0.06 -0.199,0.1588 -0.262,0.2185 -0.06,0.06 -0.109,0.065 -0.131,0.087 l 0.262,0.3058 c 0.03,-0.034 0.08,-0.079 0.131,-0.1311 0.05,-0.056 0.1,-0.1263 0.175,-0.1747 0.07,-0.049 0.165,-0.098 0.262,-0.1311 0.101,-0.037 0.226,-0.044 0.349,-0.044 0.12,0 0.217,0.01 0.306,0.044 0.09,0.033 0.159,0.075 0.219,0.1311 0.06,0.056 0.101,0.1476 0.131,0.2184 0.03,0.071 0.04,0.1039 0.04,0.1748 0,0.1118 -0.02,0.2238 -0.09,0.3058 -0.06,0.082 -0.161,0.1513 -0.262,0.2184 -0.101,0.067 -0.187,0.1189 -0.306,0.1748 -0.115,0.052 -0.249,0.1225 -0.349,0.1747 -0.191,0.1007 -0.314,0.1903 -0.437,0.3059 -0.12,0.1118 -0.235,0.2265 -0.306,0.3495 -0.07,0.123 -0.105,0.259 -0.131,0.3932 -0.02,0.1305 -0.04,0.2989 -0.04,0.4369 l 2.403,0 0,-0.3495 -1.966,0 c 0.01,-0.1156 0.05,-0.2164 0.09,-0.3059 0.04,-0.089 0.104,-0.1875 0.175,-0.2621 0.07,-0.075 0.15,-0.1476 0.262,-0.2184 0.112,-0.071 0.269,-0.1439 0.437,-0.2185 0.07,-0.033 0.154,-0.079 0.262,-0.1311 0.112,-0.052 0.202,-0.1364 0.306,-0.2184 0.105,-0.082 0.191,-0.1503 0.262,-0.2621 0.08,-0.1156 0.131,-0.2803 0.131,-0.4369 0,-0.1193 -0.04,-0.2015 -0.09,-0.3059 -0.05,-0.1081 -0.125,-0.2238 -0.218,-0.3058 -0.09,-0.082 -0.216,-0.13 -0.35,-0.1747 -0.13,-0.048 -0.269,-0.087 -0.437,-0.087 z m -2.752,0.044 c 0,0.019 -0.07,0.075 -0.131,0.131 -0.06,0.056 -0.126,0.1114 -0.219,0.1748 -0.09,0.063 -0.201,0.1263 -0.306,0.1748 -0.1,0.048 -0.176,0.087 -0.262,0.087 l 0,0.3495 c 0.07,0 0.125,-0.014 0.219,-0.044 0.09,-0.03 0.22,-0.086 0.305,-0.1311 0.09,-0.045 0.148,-0.079 0.219,-0.1311 0.07,-0.052 0.141,-0.086 0.175,-0.131 l 0,2.4029 -0.787,0 0,0.3495 1.879,0 0,-0.3495 -0.699,0 0,-2.8835 -0.393,0 z M 7.3981,6.034 C 7.2005,6.034 7.0016,6.051 6.8301,6.121 6.6586,6.1922 6.52,6.3042 6.3932,6.4272 6.2702,6.5502 6.1619,6.6963 6.0874,6.8641 6.0165,7.0281 6,7.1982 6,7.3883 c 0,0.1865 0.016,0.3603 0.087,0.5243 0.071,0.1641 0.1828,0.3139 0.3058,0.4369 0.123,0.1193 0.2729,0.1913 0.4369,0.2622 0.1678,0.067 0.3341,0.131 0.5243,0.131 0.2535,0 0.4577,-0.088 0.6553,-0.2184 C 8.211,8.3938 8.3646,8.22 8.4466,8 c 0,0.2759 -0.031,0.5265 -0.087,0.7427 C 8.307,8.9552 8.2377,9.1216 8.1408,9.267 8.0476,9.4161 7.9255,9.5382 7.7913,9.6165 7.657,9.6948 7.5184,9.7476 7.3544,9.7476 7.1456,9.7476 6.9579,9.6884 6.7864,9.5728 6.6149,9.461 6.5115,9.2824 6.4369,9.0922 L 6.1748,9.3544 c 0.1081,0.2311 0.2718,0.3938 0.4805,0.5242 0.2088,0.1304 0.4381,0.1744 0.6991,0.1744 0.2199,0 0.4327,-0.03 0.6116,-0.1307 C 8.145,9.8254 8.2762,9.6868 8.4029,9.4854 8.5334,9.2878 8.6379,9.041 8.7087,8.7427 8.7796,8.4407 8.8398,8.0968 8.8398,7.6942 8.8398,7.4369 8.7796,7.2002 8.7087,6.9951 8.6379,6.7864 8.5297,6.6125 8.4029,6.4709 8.2799,6.3292 8.1412,6.1959 7.966,6.1214 7.7908,6.0431 7.6068,6.034 7.3981,6.034 Z m 33.3349,0 c -0.134,0 -0.266,0.01 -0.393,0.044 -0.127,0.03 -0.245,0.075 -0.35,0.131 -0.104,0.056 -0.18,0.1365 -0.262,0.2185 -0.08,0.078 -0.174,0.1652 -0.218,0.2621 l 0.262,0.2185 c 0.08,-0.1678 0.189,-0.3 0.349,-0.3932 0.164,-0.097 0.356,-0.1311 0.568,-0.1311 0.116,0 0.253,0.014 0.35,0.044 0.1,0.03 0.191,0.071 0.262,0.1311 0.07,0.056 0.134,0.1327 0.175,0.2184 0.04,0.082 0.04,0.1503 0.04,0.2621 0,0.2125 -0.06,0.3901 -0.218,0.5243 -0.153,0.1342 -0.368,0.2185 -0.655,0.2185 l -0.175,0 0,0.3058 0.131,0 c 0.317,0 0.575,0.069 0.743,0.2184 0.167,0.1492 0.262,0.3544 0.262,0.6117 0,0.2535 -0.102,0.4774 -0.262,0.6116 -0.161,0.138 -0.376,0.1748 -0.656,0.1748 -0.242,0 -0.451,-0.034 -0.611,-0.1311 -0.161,-0.097 -0.272,-0.2292 -0.35,-0.3932 l -0.262,0.2621 c 0.108,0.2014 0.268,0.3251 0.481,0.4369 0.212,0.1156 0.459,0.1748 0.742,0.1748 0.194,0 0.368,-0.03 0.525,-0.087 0.16,-0.052 0.281,-0.1178 0.393,-0.2184 0.115,-0.097 0.202,-0.2079 0.262,-0.3495 C 41.932,9.2601 42,9.0852 42,8.9175 42,8.649 41.931,8.4448 41.782,8.2621 41.636,8.0795 41.416,7.9536 41.17,7.9126 c 0.115,-0.015 0.216,-0.035 0.306,-0.087 0.09,-0.056 0.198,-0.1401 0.262,-0.2184 0.06,-0.082 0.1,-0.1615 0.131,-0.2621 0.03,-0.1044 0.04,-0.194 0.04,-0.3059 0,-0.1491 -0.03,-0.3138 -0.09,-0.4369 -0.06,-0.123 -0.158,-0.22 -0.262,-0.3058 -0.104,-0.09 -0.204,-0.17 -0.349,-0.2184 C 41.072,6.0292 40.905,6.034 40.733,6.034 Z M 7.3981,6.3398 c 0.1416,0 0.2701,0.031 0.3932,0.087 0.1267,0.052 0.2126,0.1215 0.3058,0.2184 0.097,0.093 0.2062,0.2228 0.2621,0.3495 0.056,0.1231 0.087,0.2553 0.087,0.3932 0,0.1417 -0.031,0.2665 -0.087,0.3933 C 8.307,7.9046 8.2377,7.9942 8.1408,8.0874 8.0476,8.1806 7.918,8.2936 7.7913,8.3495 7.6645,8.4017 7.5397,8.3932 7.3981,8.3932 7.2564,8.3932 7.1316,8.4017 7.0049,8.3495 6.8818,8.2936 6.7485,8.1806 6.6553,8.0874 6.5621,7.9942 6.4928,7.9046 6.4369,7.7816 6.381,7.6548 6.3495,7.53 6.3495,7.3883 6.3495,7.2467 6.3847,7.1182 6.4369,6.9951 6.4928,6.8684 6.5621,6.7388 6.6553,6.6456 6.7523,6.5524 6.8818,6.4794 7.0049,6.4272 7.1316,6.3713 7.2564,6.3398 7.3981,6.3398 Z M 24.306,21.85 c -0.22,0 -0.433,0.08 -0.612,0.174 -0.179,0.1 -0.306,0.236 -0.437,0.437 -0.126,0.198 -0.235,0.441 -0.306,0.743 -0.07,0.298 -0.09,0.646 -0.09,1.048 0,0.258 0.02,0.491 0.09,0.699 0.07,0.206 0.18,0.383 0.306,0.525 0.127,0.141 0.262,0.227 0.437,0.306 0.175,0.07 0.359,0.131 0.568,0.131 0.198,0 0.397,-0.02 0.568,-0.09 0.172,-0.07 0.314,-0.183 0.437,-0.306 0.127,-0.123 0.235,-0.272 0.306,-0.436 0.07,-0.168 0.09,-0.335 0.09,-0.525 0,-0.186 -0.02,-0.36 -0.09,-0.524 -0.07,-0.164 -0.183,-0.318 -0.306,-0.437 -0.123,-0.123 -0.269,-0.195 -0.437,-0.262 -0.164,-0.07 -0.334,-0.131 -0.524,-0.131 -0.254,0 -0.454,0.09 -0.656,0.218 -0.197,0.131 -0.354,0.305 -0.436,0.525 0,-0.273 0.04,-0.527 0.09,-0.743 0.06,-0.216 0.125,-0.423 0.218,-0.568 0.1,-0.149 0.216,-0.228 0.35,-0.306 0.134,-0.08 0.273,-0.131 0.437,-0.131 0.209,0 0.396,0.06 0.568,0.175 0.171,0.112 0.318,0.247 0.393,0.437 L 25.488,22.59 C 25.377,22.361 25.214,22.198 25.005,22.068 24.796,21.937 24.567,21.85 24.306,21.85 Z m -0.04,1.66 c 0.138,0 0.267,0.03 0.393,0.09 0.127,0.05 0.257,0.125 0.35,0.219 0.09,0.09 0.162,0.222 0.218,0.349 0.06,0.123 0.09,0.252 0.09,0.393 0,0.142 -0.03,0.267 -0.09,0.393 -0.05,0.123 -0.121,0.213 -0.218,0.306 -0.09,0.09 -0.223,0.206 -0.35,0.262 -0.123,0.05 -0.251,0.04 -0.393,0.04 -0.142,0 -0.266,0 -0.393,-0.04 -0.123,-0.06 -0.209,-0.169 -0.306,-0.262 -0.09,-0.1 -0.206,-0.183 -0.262,-0.306 -0.06,-0.123 -0.04,-0.251 -0.04,-0.393 0,-0.141 0,-0.27 0.04,-0.393 0.06,-0.127 0.125,-0.256 0.218,-0.349 0.1,-0.09 0.223,-0.167 0.35,-0.219 0.127,-0.06 0.251,-0.09 0.393,-0.09 z" inkscape:connector-curvature="0" />
            <path style="color:#000000;fill:none;stroke:url(#linearGradient3221);stroke-linecap:round;stroke-linejoin:round" id="path3421" d="m 43.499,8 c 0,10.77 -8.73,19.5 -19.5,19.5 C 13.229,27.5 4.4993,18.77 4.4993,8 c 0,-10.7696 8.7297,-19.5 19.4997,-19.5 10.77,0 19.5,8.7304 19.5,19.5 z" inkscape:connector-curvature="0" />
            <path style="color:#000000;fill:url(#radialGradient3139);stroke-width:1.25224" id="path4117" transform="matrix(1.1952,0,0,1.1919,4.8776,-10.943)" d="m 16.626,16 a 0.62612,0.62612 0 1 1 -1.252,0 0.62612,0.62612 0 1 1 1.252,0 z" inkscape:connector-curvature="0" />
        </g>
    </g>
    <g inkscape:groupmode="layer" id="layer2" inkscape:label="play" sodipodi:insensitive="true" style="display:none">
        <g id="g8226" transform="matrix(0.53572,0,0,0.53572,15.336,9.6396)">
            <path style="color:#000000;solid-opacity:1;fill:url(#radialGradient3900-3);stroke-width:0.98543" id="path3375-1-3" d="m 2.2197,30.503 0,-28.9995 L 29.22,16.003 2.2197,30.503 Z" inkscape:connector-curvature="0" />
            <path style="color:#000000;opacity:0.5;solid-opacity:1;fill:none;stroke:#0f5a00;stroke-linecap:round;stroke-linejoin:round" id="path3375-1" d="m 2.5,30.5 0,-29 27,14.5 -27,14.5 z" inkscape:connector-curvature="0" />
            <path style="color:#000000;opacity:0.6;solid-opacity:1;fill:none;stroke:url(#linearGradient3038);stroke-width:0.992" id="path4220-4" d="m 3.496,3.1911 0,25.6269 23.893,-12.79 z" inkscape:connector-curvature="0" />
        </g>
    </g>
    <g inkscape:groupmode="layer" id="layer3" inkscape:label="warning" style="display:none">
        <g id="g8290" transform="matrix(0.46875,0,0,0.46875,15,10.477)">
            <g style="opacity:0.4" id="g3257" transform="matrix(0.66666,0,0,1.3333,0,-30.333)">
                <rect style="fill:url(#linearGradient3196)" id="rect2879" y="43" x="3.6" height="3" width="40.8" />
                <path style="fill:url(#radialGradient3198)" id="path2881" d="m 3.6,43 c 0,0 0,3 0,3 C 2.1109,46.006 0,45.328 0,44.5 0,43.672 1.6618,43 3.6,43 Z" inkscape:connector-curvature="0" />
                <path style="fill:url(#radialGradient3200)" id="path2883" d="m 44.4,43 c 0,0 0,3 0,3 C 45.889,46 48,45.328 48,44.5 48,43.672 46.338,43 44.4,43 Z" inkscape:connector-curvature="0" />
            </g>
            <path style="fill:url(#linearGradient3042)" id="path11155" d="M 30.294,26.643 17.707,3.5 c -0.362,-0.6429 -1.016,-1 -1.745,-1 -0.73,0 -1.388,0.4286 -1.755,1.0714 L 1.7143,26.714 C 1.4202,27.286 1.4168,28.071 1.7789,28.643 2.141,29.214 2.723,29.5 3.4521,29.5 l 25.0799,0 c 0.729,0 1.386,-0.357 1.68,-0.929 0.367,-0.571 0.37,-1.285 0.08,-1.928 z" inkscape:connector-curvature="0" />
            <path style="opacity:0.6;fill:none;stroke:url(#linearGradient3039)" id="path11159" d="M 28.899,25.884 17.363,4.7051 C 16.871,3.7927 16.695,3.5 15.948,3.5 15.306,3.5 14.97,3.9263 14.506,4.7875 L 3.0982,25.949 c -0.6625,1.188 -0.7334,1.498 -0.4146,2.021 0.3189,0.523 0.7283,0.494 2.2409,0.528 l 22.4215,0 c 1.408,0.02 1.726,-0.09 1.985,-0.611 0.323,-0.523 0.186,-0.937 -0.432,-2.003 z" inkscape:connector-curvature="0" />
            <path style="color:#000000;opacity:0.4;fill:none;stroke:#311d00" id="path11155-59" d="M 30.294,26.643 17.707,3.5 c -0.362,-0.6429 -1.016,-1 -1.745,-1 -0.73,0 -1.388,0.4286 -1.755,1.0714 L 1.7143,26.714 C 1.4202,27.286 1.4168,28.071 1.7789,28.643 2.141,29.214 2.723,29.5 3.4521,29.5 l 25.0799,0 c 0.729,0 1.386,-0.357 1.68,-0.929 0.367,-0.571 0.37,-1.285 0.08,-1.928 z" inkscape:connector-curvature="0" />
            <path style="opacity:0.3;fill:#ffffff;stroke-linejoin:round;stroke-opacity:0.49804" d="m 16,10 c -1.105,0 -2,0.895 -2,2 0,2 0.667,4.667 1.333,10 l 1.334,0 C 17.333,16.667 18,14 18,12 18,10.895 17.105,10 16,10 Z m 0,14 c -1.105,0 -2,0.895 -2,2 0,1.105 0.895,2 2,2 1.105,0 2,-0.895 2,-2 0,-1.105 -0.895,-2 -2,-2 z" id="path4238" inkscape:connector-curvature="0" />
            <path id="path4159-3" d="m 16,9 c -1.105,0 -2,0.8954 -2,2 0,2 0.667,4.667 1.333,10 l 1.334,0 C 17.333,15.667 18,13 18,11 18,9.8954 17.105,9 16,9 Z m 0,14 c -1.105,0 -2,0.895 -2,2 0,1.105 0.895,2 2,2 1.105,0 2,-0.895 2,-2 0,-1.105 -0.895,-2 -2,-2 z" style="fill:url(#linearGradient4236);stroke-linejoin:round;stroke-opacity:0.49804" inkscape:connector-curvature="0" />
        </g>
    </g>
</svg>
